Coordinates
version=1
nRows=49
nColumns=12
inDegrees=yes

Units are S.I. units (second, meters, Newtons, ...)
Angles are in degrees

endheader
time	SC_y	SC_z	SC_x	AC_y	AC_z	AC_x	GH_y	GH_z	GH_yy	EL_x	PS_y
       0.0              -29.86          24.79          5.251          48.15         -15.51          -12.6         -57.82          77.84          139.2          106.0          67.44
   0.03148              -29.87          24.79          5.258          48.15         -15.51         -12.59         -57.79          77.84          139.2          105.9          67.43
   0.06295              -29.87          24.79          5.265          48.16         -15.51         -12.59         -57.76          77.84          139.2          105.9          67.43
   0.09443              -29.87          24.78          5.273          48.16         -15.51         -12.58         -57.72          77.84          139.2          105.9          67.42
    0.1259              -29.87          24.78          5.282          48.16          -15.5         -12.58         -57.69          77.84          139.2          105.9          67.41
    0.1574              -29.88          24.78          5.291          48.16          -15.5         -12.57         -57.64          77.84          139.2          105.9           67.4
    0.1889              -29.88          24.78          5.301          48.16          -15.5         -12.57          -57.6          77.84          139.2          105.9          67.39
    0.2203              -29.88          24.77          5.311          48.17          -15.5         -12.56         -57.55          77.84          139.1          105.8          67.38
    0.2518              -29.89          24.77          5.322          48.17         -15.49         -12.56         -57.51          77.84          139.1          105.8          67.37
    0.2833              -29.89          24.77          5.334          48.17         -15.49         -12.55         -57.45          77.84          139.1          105.8          67.36
    0.3148               -29.9          24.76          5.346          48.17         -15.49         -12.54         -57.39          77.84          139.1          105.8          67.35
    0.3463               -29.9          24.76           5.36          48.18         -15.48         -12.53         -57.33          77.84          139.1          105.7          67.34
    0.3777              -29.91          24.76          5.375          48.18         -15.48         -12.53         -57.27          77.84          139.1          105.7          67.32
    0.4092              -29.91          24.75          5.391          48.18         -15.47         -12.52         -57.19          77.84          139.1          105.7          67.31
    0.4407              -29.92          24.75          5.408          48.19         -15.47         -12.51         -57.12          77.84          139.1          105.7          67.29
    0.4722              -29.92          24.74          5.427          48.19         -15.46          -12.5         -57.03          77.84          139.1          105.6          67.28
    0.5036              -29.93          24.74          5.447          48.19         -15.46         -12.49         -56.94          77.84          139.1          105.6          67.26
    0.5351              -29.94          24.73          5.469           48.2         -15.45         -12.47         -56.84          77.84          139.1          105.5          67.24
    0.5666              -29.95          24.72          5.493           48.2         -15.44         -12.46         -56.73          77.84          139.0          105.5          67.21
    0.5981              -29.96          24.72           5.52          48.21         -15.44         -12.45         -56.61          77.84          139.0          105.4          67.19
    0.6295              -29.97          24.71          5.549          48.21         -15.43         -12.43         -56.48          77.84          139.0          105.4          67.16
     0.661              -29.98           24.7          5.581          48.22         -15.42         -12.41         -56.34          77.84          139.0          105.3          67.13
    0.6925              -29.99          24.69          5.616          48.23         -15.41         -12.39         -56.18          77.85          139.0          105.3           67.1
     0.724               -30.0          24.68          5.656          48.24          -15.4         -12.37          -56.0          77.85          139.0          105.2          67.06
    0.7555              -30.02          24.67          5.699          48.24         -15.39         -12.35         -55.81          77.85          138.9          105.1          67.02
    0.7869              -30.04          24.65          5.748          48.25         -15.37         -12.32         -55.59          77.85          138.9          105.0          66.98
    0.8184              -30.05          24.64          5.802          48.27         -15.36         -12.29         -55.34          77.85          138.9          104.9          66.93
    0.8499              -30.07          24.62          5.863          48.28         -15.34         -12.25         -55.07          77.85          138.8          104.8          66.87
    0.8814               -30.1           24.6          5.933          48.29         -15.32         -12.22         -54.76          77.85          138.8          104.6          66.81
    0.9128              -30.13          24.58          6.011          48.31          -15.3         -12.17          -54.4          77.85          138.8          104.5          66.74
    0.9443              -30.16          24.56          6.101          48.33         -15.27         -12.12          -54.0          77.86          138.7          104.3          66.65
    0.9758              -30.19          24.53          6.204          48.35         -15.24         -12.07         -53.54          77.86          138.7          104.1          66.56
     1.007              -30.23           24.5          6.323          48.37         -15.21          -12.0          -53.0          77.86          138.6          103.9          66.45
     1.039              -30.28          24.46          6.461           48.4         -15.17         -11.92         -52.38          77.86          138.5          103.6          66.32
      1.07              -30.34          24.42          6.622          48.43         -15.12         -11.83         -51.66          77.87          138.4          103.3          66.17
     1.102               -30.4          24.36          6.812          48.47         -15.07         -11.73          -50.8          77.87          138.3          103.0          65.99
     1.133              -30.48           24.3          7.039          48.52          -15.0          -11.6         -49.78          77.88          138.2          102.5          65.78
     1.165              -30.57          24.23           7.31          48.57         -14.93         -11.45         -48.56          77.88          138.1          102.0          65.53
     1.196              -30.69          24.14          7.638          48.64         -14.83         -11.27         -47.08          77.89          137.9          101.4          65.23
     1.228              -30.82          24.03          8.039          48.72         -14.72         -11.04         -45.28           77.9          137.7          100.6          64.86
     1.259              -30.99          23.89          8.534          48.82         -14.58         -10.77         -43.05          77.91          137.4          99.67           64.4
     1.291              -31.21          23.73          9.151          48.94          -14.4         -10.43         -40.28          77.92          137.0          98.49          63.83
     1.322              -31.47          23.51          9.928           49.1         -14.18         -9.993         -36.78          77.94          136.6           97.0          63.11
     1.354              -31.81          23.24          10.92           49.3          -13.9         -9.443         -32.34          77.96          136.1          95.11          62.19
     1.385              -32.25           22.9          12.18          49.56         -13.54          -8.74         -26.65          77.98          135.4          92.69          61.02
     1.416              -32.81          22.45           13.8          49.89         -13.07         -7.837         -19.35          78.02          134.5          89.58          59.52
     1.448              -33.52          21.89          15.88          50.31         -12.48         -6.683         -10.02          78.06          133.4          85.61          57.59
     1.479              -34.41          21.18          18.48          50.84         -11.74         -5.233          1.707          78.12          131.9          80.62          55.18
     1.511              -35.51          20.31          21.66          51.48         -10.83         -3.466           16.0          78.18          130.2          74.54          52.24
